PathFileType	4	(X/Y/Z)	pose_F01_0-74.trc
DataRate	CameraRate	NumFrames	NumMarkers	Units	OrigDataRate	OrigDataStartFrame	OrigNumFrames
30	30	5	21	m	30	0	74
Frame#	Time	CHip			RHip			RKnee			RAnkle			RBigToe			RSmallToe			RHeel			LHip			LKnee			LAnkle			LBigToe			LSmallToe			LHeel			Neck			Nose			RShoulder			RElbow			RWrist			LShoulder			LElbow			LWrist			
		X1	Y1	Z1	X2	Y2	Z2	X3	Y3	Z3	X4	Y4	Z4	X5	Y5	Z5	X6	Y6	Z6	X7	Y7	Z7	X8	Y8	Z8	X9	Y9	Z9	X10	Y10	Z10	X11	Y11	Z11	X12	Y12	Z12	X13	Y13	Z13	X14	Y14	Z14	X15	Y15	Z15	X16	Y16	Z16	X17	Y17	Z17	X18	Y18	Z18	X19	Y19	Z19	X20	Y20	Z20	X21	Y21	Z21	
0	0.0	-0.2331904741297341	1.8301339033151895	-0.42322453909604	-0.2447227446235126	1.822415257642377	-0.35905418887579277	-0.2358245174993473	1.692197889158792	-0.42238265880827686	-0.21240967588665402	1.603631866887413	-0.5288141998859311	-0.17035406441331452	1.5895784581029961	-0.2323099974792342	-0.20244703468443798	1.55130722753252	-0.2305363877365153	-0.2205065537899876	1.5501562515707277	-0.5646189367559834	-0.22743613150238048	1.833729904012315	-0.474972416444282	-0.24881650156652652	1.703799633767951	-0.3806569871762349	-0.17022375592620825	1.6088011843883914	-0.6050755575404654	-0.15262107396332483	1.6156713807750718	-0.22945501364641707	-0.21452750090557238	1.5663966026524074	-0.5637884291154717	-0.17473789570783888	1.5935988786345452	-0.5726162354830546	-0.23296085852507906	1.9836298389348703	-0.41060767046108754	-0.2358038820838816	2.0323709456581476	-0.5146577423678688	-0.25274038561584994	1.981379178610907	-0.3425039453189833	-0.27843268094347373	1.8924167932661833	-0.3526484606506859	-0.31636489063191653	1.9214512820638394	-0.426671819604892	-0.20785327167434914	1.9891617273442397	-0.49246994438042324	-0.21843421520530412	1.9114870024356991	-0.4910319650205569	-0.20884718384611708	1.9295395137751743	-0.5735278769851766
1	0.03333333333333333	-0.23268788037849136	1.8298382375502265	-0.437504553629489	-0.245692955778891	1.8233319798847978	-0.3855650876272818	-0.23465649458320717	1.6966179600439255	-0.44582011145106826	-0.2136321375075426	1.5990889837477744	-0.53600274781619	-0.1749763092002137	1.582776732866762	-0.29149354516210113	-0.20395363914788245	1.5497033548765287	-0.28536543512344337	-0.2205065537899876	1.5501562515707277	-0.5646189367559834	-0.22083974320410393	1.8330432911218248	-0.48692973380460497	-0.24362399004127783	1.7033346081242766	-0.39510180090137526	-0.17022375592620825	1.6088011843883914	-0.6050755575404654	-0.15465099121983947	1.612988093280513	-0.2611802199788104	-0.21447045556368777	1.5660648700501205	-0.5641715255853934	-0.17473789570783888	1.5935988786345452	-0.5726162354830546	-0.23028157215209324	1.981660965828572	-0.4352569326744887	-0.23037181798858278	2.02993451722758	-0.5323240211114546	-0.25154704261953037	1.9798482499000094	-0.3706434991610259	-0.27959730919342735	1.900607038954672	-0.3577649166285773	-0.2959043531406233	1.9266938226892978	-0.4525371787212936	-0.2065233804057995	1.9861219731314201	-0.5058226415363889	-0.20164293117142035	1.914911082731597	-0.518650339538387	-0.19390476047499092	1.9440927767005647	-0.5935943630888723
2	0.06666666666666667	-0.23218528662724863	1.8295425717852634	-0.45178456816293794	-0.2466631669342694	1.8242487021272185	-0.41207598637877085	-0.23348847166706704	1.701038030929059	-0.46925756409385966	-0.21485459912843116	1.5945461006081358	-0.5431912957464488	-0.17959855398711289	1.5759750076305277	-0.35067709284496806	-0.20546024361132692	1.5480994822205374	-0.34019448251037143	-0.2205065537899876	1.5501562515707277	-0.5646189367559834	-0.21424335490582738	1.8323566782313347	-0.49888705116492793	-0.23843147851602914	1.7028695824806022	-0.4095466146265156	-0.17022375592620825	1.6088011843883914	-0.6050755575404654	-0.1566809084763541	1.6103048057859541	-0.29290542631120375	-0.21441341022180316	1.5657331374478336	-0.5645546220553151	-0.17473789570783888	1.5935988786345452	-0.5726162354830546	-0.22760228577910743	1.9796920927222736	-0.4599061948878898	-0.22493975389328397	2.027498088797012	-0.5499902998550404	-0.2503536996232108	1.9783173211891119	-0.3987830530030685	-0.28076193744338096	1.908797284643161	-0.3628813726064687	-0.27544381564933007	1.9319363633147562	-0.47840253783769526	-0.20519348913724988	1.9830822189186006	-0.5191753386923545	-0.18485164713753657	1.9183351630274947	-0.5462687140562171	-0.17896233710386475	1.958646039625955	-0.6136608491925679
3	0.1	-0.22930383862671053	1.8323377935390408	-0.46890099369070115	-0.24290226935231232	1.8286075195258886	-0.4264536255149452	-0.23232044875092692	1.7054581018141923	-0.49269501673665106	-0.21607706074931973	1.5900032174684973	-0.5503798436767076	-0.18422079877401207	1.5691732823942934	-0.409860640527835	-0.2069668480747714	1.5464956095645461	-0.3950235298972995	-0.2205065537899876	1.5501562515707277	-0.5646189367559834	-0.21214013084962993	1.8354748547016835	-0.5014560408630558	-0.23323896699078045	1.7024045568369277	-0.42399142835165593	-0.17022375592620825	1.6088011843883914	-0.6050755575404654	-0.15871082573286874	1.6076215182913953	-0.3246306326435971	-0.20893329921661477	1.5506696127287312	-0.5662446601827165	-0.17473789570783888	1.5935988786345452	-0.5726162354830546	-1.8275038432203654	1.8919028326711262	1.3177097597421006	-0.21934017338657502	2.0274828235253413	-0.5762382861210533	-0.2468445235673032	1.9793381101537977	-0.42043204412119883	-0.27703817757563015	1.9056974389627395	-0.36072817287408354	-0.26133359499152004	1.9168638326844305	-0.4989452768625873	-0.2021186597629467	1.9855872513170911	-0.5272726412357066	-0.18566636004850592	1.9217350872566559	-0.548948524995308	-0.17795091530172363	1.9577851584426658	-0.6175071197299423
4	0.13333333333333333	-0.22333851154752038	1.8357527481630507	-0.46681238248897083	-0.24032017042660045	1.833141711510109	-0.4431924135394193	-0.2311524258347868	1.7098781726993257	-0.5161324693794425	-0.2172995223702083	1.5854603343288587	-0.5575683916069664	-0.18884304356091125	1.5623715571580592	-0.46904418821070193	-0.20847345253821586	1.5448917369085549	-0.44985257728422756	-0.2205065537899876	1.5501562515707277	-0.5646189367559834	-0.20633017050021804	1.8405137032162504	-0.49066229436668046	-0.22804645546553176	1.7019395311932533	-0.43843624207679627	-0.17022375592620825	1.6088011843883914	-0.6050755575404654	-0.16074074298938337	1.6049382307968365	-0.35635583897599044	-0.2050689222423953	1.555855254201436	-0.5711198148254181	-0.17473789570783888	1.5935988786345452	-0.5726162354830546	-0.2185869547351563	1.984492515982958	-0.49196831076816816	-0.2126855622950175	2.0305940718211253	-0.5914047146881507	-0.24613325611020223	1.9821783107637279	-0.4436836244626548	-0.2679155403063507	1.9083640169505536	-0.3724409459286285	-0.25427290775102673	1.9180648016879271	-0.5173106644645644	-0.19398979507939165	1.987061487258458	-0.5368013597775805	-0.19909174210916333	1.917396770127369	-0.5568253073982017	-0.1877777010445324	1.9487446601024652	-0.6381544896619834
